<?xml version="1.0" standalone="no"?>
<!DOCTYPE svg PUBLIC "-//W3C//DTD SVG 20010904//EN"
 "http://www.w3.org/TR/2001/REC-SVG-20010904/DTD/svg10.dtd">
<svg version="1.0" xmlns="http://www.w3.org/2000/svg"
 width="776.000000pt" height="776.000000pt" viewBox="0 0 776.000000 776.000000"
 preserveAspectRatio="xMidYMid meet">
<metadata>
Created by potrace 1.11, written by Peter Selinger 2001-2013
</metadata>
<g transform="translate(0.000000,776.000000) scale(0.100000,-0.100000)"
fill="#000000" stroke="none">
<path d="M2521 7110 c-164 -39 -350 -230 -398 -410 -22 -82 7 -180 74 -245 68
-66 196 -108 258 -85 l25 10 -21 -42 c-47 -92 -65 -208 -49 -315 6 -35 4 -43
-9 -44 -9 0 -25 -2 -36 -4 -11 -1 -45 -6 -75 -9 -30 -3 -66 -8 -80 -11 -14 -2
-38 -6 -55 -9 -81 -14 -182 -42 -260 -72 -11 -4 -22 -8 -25 -9 -55 -15 -186
-76 -290 -135 -76 -43 -117 -72 -225 -152 -33 -25 -249 -240 -280 -278 -53
-68 -147 -204 -162 -235 -9 -19 -20 -35 -25 -35 -4 0 -8 -5 -8 -11 0 -7 -13
-34 -30 -60 -16 -27 -27 -49 -24 -49 4 0 -1 -11 -10 -24 -30 -46 -114 -274
-142 -386 -13 -53 -35 -150 -39 -180 -3 -19 -10 -60 -15 -90 -24 -138 -32
-478 -15 -635 4 -38 9 -83 10 -100 6 -55 15 -130 20 -155 10 -49 13 -68 19
-105 4 -20 8 -40 10 -44 2 -3 7 -22 10 -41 6 -38 7 -44 31 -135 9 -33 17 -64
18 -70 2 -5 6 -16 10 -22 5 -7 6 -13 3 -13 -7 0 69 -218 101 -290 29 -64 95
-196 131 -260 27 -48 161 -252 171 -260 3 -3 19 -23 36 -45 16 -22 34 -45 40
-52 5 -6 32 -36 58 -66 117 -135 267 -275 407 -380 41 -31 80 -60 85 -65 51
-42 395 -248 395 -236 0 3 12 -4 26 -15 15 -12 30 -21 35 -21 5 0 39 -14 76
-31 38 -17 91 -40 118 -51 28 -11 64 -25 80 -32 33 -15 211 -76 235 -81 8 -2
76 -19 150 -38 140 -36 259 -59 419 -82 43 -6 85 -11 201 -21 95 -8 472 -12
463 -4 -4 3 -28 12 -53 19 -51 14 -146 48 -172 62 -10 5 -22 9 -28 9 -31 0
-410 192 -418 212 -2 4 -8 8 -13 8 -17 0 -248 163 -305 215 -6 6 -37 33 -70
60 -104 89 -245 237 -334 350 -17 22 -37 48 -45 57 -58 70 -194 285 -226 356
-7 17 -17 32 -21 32 -5 0 -8 4 -8 10 0 5 -11 33 -24 62 -80 176 -142 365 -163
493 -2 17 -6 41 -9 55 -18 109 -24 302 -12 395 14 112 18 130 32 180 28 98 47
151 71 195 14 25 27 53 31 63 3 9 10 17 15 17 5 0 9 6 9 13 0 33 196 207 234
207 8 0 17 4 20 9 7 11 56 22 120 28 155 14 314 -95 376 -257 26 -69 143 -300
151 -300 5 0 9 -5 9 -10 0 -18 76 -115 147 -187 79 -80 132 -123 223 -179 59
-36 220 -114 236 -114 3 0 20 -6 37 -14 61 -26 274 -84 372 -100 29 -5 29 -4
10 10 -78 58 -274 245 -335 319 -86 105 -190 259 -190 281 0 8 -3 14 -8 14 -6
0 -42 70 -48 95 -1 6 -12 31 -23 57 -23 50 -57 174 -67 243 -10 62 -11 236 -3
275 4 19 10 60 13 90 4 30 9 67 11 82 12 63 17 165 17 333 1 253 -11 341 -67
511 -38 113 -69 174 -128 252 -22 29 -38 54 -36 55 219 148 357 312 421 501
27 79 32 105 32 196 0 117 -6 161 -37 245 -84 227 -221 360 -422 411 -102 26
-282 23 -335 -6 -11 -6 -20 -7 -20 -3 0 4 -5 2 -12 -5 -21 -21 -25 -14 -30 51
-7 75 -30 128 -83 186 -37 40 -100 81 -135 88 -44 8 -119 10 -149 3z"/>
<path d="M6047 6243 c-1 0 -31 -4 -67 -7 -84 -9 -237 -36 -270 -49 -8 -3 -28
-9 -45 -13 -37 -9 -30 -7 -90 -26 -27 -9 -72 -26 -100 -36 -27 -11 -66 -26
-85 -34 -19 -7 -37 -16 -40 -19 -3 -4 -16 -10 -30 -13 -26 -8 -111 -47 -120
-56 -3 -3 -34 -20 -70 -39 -63 -32 -224 -128 -245 -144 -5 -4 -39 -27 -75 -50
-36 -23 -69 -46 -75 -52 -5 -6 -29 -24 -53 -40 -39 -26 -259 -200 -272 -214
-3 -3 -39 -35 -80 -71 -109 -95 -138 -124 -115 -112 53 26 147 67 210 92 39
15 79 31 90 35 42 16 234 72 277 80 18 3 44 8 58 10 131 24 369 28 475 7 294
-58 515 -215 658 -469 20 -34 38 -72 42 -85 4 -13 14 -31 23 -40 8 -10 12 -18
8 -18 -3 0 0 -13 9 -30 8 -16 15 -33 15 -37 0 -5 6 -30 14 -58 13 -44 24 -90
42 -175 30 -147 36 -547 10 -700 -3 -14 -7 -45 -10 -70 -16 -120 -68 -381 -87
-430 -5 -14 -11 -34 -14 -45 -2 -11 -15 -58 -30 -105 -14 -47 -27 -92 -29
-100 -10 -38 -91 -260 -112 -307 -13 -28 -24 -55 -24 -58 0 -8 -39 -97 -110
-250 -23 -49 -46 -99 -51 -110 -13 -28 -109 -210 -142 -267 -15 -27 -39 -69
-54 -95 -45 -82 -173 -283 -247 -391 -114 -166 -127 -185 -203 -285 -69 -92
-82 -108 -131 -165 -12 -15 -26 -31 -30 -37 -71 -91 -201 -235 -355 -393 -55
-56 -98 -104 -96 -107 3 -2 36 13 73 35 38 22 72 40 77 40 5 0 9 5 9 10 0 6 5
10 11 10 6 0 31 14 56 30 24 17 46 30 48 30 16 0 362 255 451 332 104 90 145
127 188 167 88 82 310 307 366 371 30 34 60 68 67 75 7 7 49 57 94 111 44 55
90 109 100 122 10 12 19 27 19 32 0 6 3 10 8 10 4 0 29 30 57 68 27 37 53 72
58 77 5 6 40 55 78 110 133 191 244 365 239 374 -1 2 2 7 7 10 11 7 93 147 93
157 0 4 6 15 14 23 17 19 175 329 235 460 57 127 179 432 185 466 1 6 4 15 8
20 4 8 39 118 42 135 2 11 48 176 53 190 3 8 7 24 9 35 5 27 10 47 17 65 5 13
16 66 22 110 2 8 6 31 9 50 4 19 9 46 11 60 15 93 25 165 32 221 9 84 10 450
1 514 -4 28 -10 70 -14 95 -11 81 -43 218 -61 260 -3 8 -7 20 -9 25 -9 39 -86
199 -96 203 -4 2 -8 8 -8 12 0 12 -41 71 -87 127 -21 25 -40 48 -43 52 -14 20
-155 131 -167 131 -7 0 -13 4 -13 9 0 5 -16 15 -35 22 -19 7 -35 17 -35 21 0
4 -3 7 -7 6 -7 -1 -48 14 -84 32 -30 15 -191 52 -247 56 -63 5 -203 10 -205 7z"/>
<path d="M4274 3477 c-23 -7 -48 -17 -55 -22 -8 -6 -27 -17 -42 -25 -31 -16
-172 -148 -165 -155 3 -3 19 2 35 10 45 22 128 29 181 14 59 -16 149 -104 190
-185 26 -51 59 -137 66 -169 1 -5 5 -19 9 -30 7 -22 12 -50 27 -140 32 -206
30 -532 -6 -757 -2 -16 -6 -40 -8 -55 -21 -140 -17 -118 -56 -288 -31 -134
-119 -419 -155 -501 -106 -243 -181 -379 -264 -484 l-36 -44 50 34 c54 36 128
108 172 168 15 20 30 39 33 42 15 15 50 71 50 80 0 5 5 10 10 10 6 0 10 5 10
12 0 6 6 19 14 27 28 32 166 318 166 344 0 7 4 17 9 23 15 16 117 336 135 424
3 14 7 34 10 45 15 65 25 114 30 140 3 17 8 41 11 55 3 14 7 41 9 60 3 19 7
51 10 70 20 122 30 265 30 440 0 129 -8 285 -14 285 -1 0 -3 11 -4 25 -10 83
-26 161 -44 210 -3 8 -6 17 -7 20 -26 97 -110 237 -164 275 -74 52 -153 66
-237 42z"/>
</g>
</svg>
