<svg id="Layer_1" data-name="Layer 1" xmlns="http://www.w3.org/2000/svg" viewBox="0 0 36.85 36.85"><defs><style>.cls-1{fill:#1a171a;}.cls-2{fill:#fdc903;}</style></defs><title>Artboard 1</title><path class="cls-1" d="M33.78,26.14H32.56L32,25.32a.51.51,0,0,0-.42-.21c-.57,0-1.79,1.1-3.38,1.1h-.36c-2.29,0-3.35-1.34-3.35-3.14v-1c0-1.8,1.06-3,3.35-3h.36c1.59,0,2.81,1,3.38,1,.14,0,.21-.09.21-.28V18.68a1.05,1.05,0,0,0-1.06-1.06H25.63V16.19A1.16,1.16,0,0,1,26.81,15h4.86A3.23,3.23,0,0,1,35,18.14V25a1.17,1.17,0,0,1-1.22,1.19m-2-3.66a1.05,1.05,0,0,0-1.06-1.06H28.64a1.05,1.05,0,0,0-1.06,1.06v.21a1.05,1.05,0,0,0,1.06,1.06H30.7a1.05,1.05,0,0,0,1.06-1.06Z"/><path class="cls-1" d="M19.8,26h-.34c-1.56,0-2.75-1.08-3.3-1.08a.46.46,0,0,0-.42.21l-.54.8H13.93a1.14,1.14,0,0,1-1.14-1.15V11.59a1.14,1.14,0,0,1,1.14-1.14h2v5.41q0,.27.21.27c.55,0,1.74-1.12,3.3-1.12h.34c2.25,0,3.28,1.3,3.28,3.07v4.86c0,1.76-1,3.07-3.28,3.07m.12-7.2a1,1,0,0,0-1-1H17a1,1,0,0,0-1,1V22.2a1,1,0,0,0,1,1h1.9a1,1,0,0,0,1-1Z"/><path class="cls-1" d="M9.87,25.94H9a1.14,1.14,0,0,1-1.15-1.15V16.22A1.15,1.15,0,0,1,9,15.08h.87A1.13,1.13,0,0,1,11,16.22v8.57a1.14,1.14,0,0,1-1.14,1.15"/><path class="cls-2" d="M9.87,13.63H9a1.14,1.14,0,0,1-1.15-1.14v-.9A1.15,1.15,0,0,1,9,10.45h.87A1.13,1.13,0,0,1,11,11.59v.9a1.13,1.13,0,0,1-1.14,1.14"/><path class="cls-2" d="M16.14,25.86a8,8,0,1,1-10.42-12,.49.49,0,0,0,.15-.65.5.5,0,0,0-.71-.17,9,9,0,1,0,11.7,13.5h0l0-.05a3.28,3.28,0,0,0,.28-.37c.07-.1.24-.33.4-.57-.35-.16-.65-.33-.91-.45-.27.41-.47.67-.54.76"/><path class="cls-2" d="M21,26a11.15,11.15,0,0,1-7.54,8.31l-.1,0-.64.17-.35.08-.28.06-.61.09-.19,0-.7,0h-.48A11,11,0,0,1,7,34.34a.5.5,0,0,0-.28,1,12.22,12.22,0,0,0,3.46.5c.44,0,.86,0,1.29-.07l.2,0c.23,0,.45-.06.67-.1l.3-.06c.13,0,.27,0,.4-.09s.45-.11.67-.18l.15-.05.29-.08a12.17,12.17,0,0,0,8.1-9.94,2.8,2.8,0,0,1-1.15.64c0,.09,0,.14,0,.14"/><path class="cls-2" d="M17.82,23l-.09.21h1.08c1.77-4,3.1-10.35-.18-18.76l1.75.17L16.49,1l.22,5.33,1-1.43c3.19,8.2,1.83,14.37.1,18.13"/></svg>