<svg version="1.1"
	 xmlns="http://www.w3.org/2000/svg" xmlns:xlink="http://www.w3.org/1999/xlink" xmlns:a="http://ns.adobe.com/AdobeSVGViewerExtensions/3.0/"
	 x="0px" y="0px" width="79.1px" height="54.4px" viewBox="0 0 79.1 54.4" style="enable-background:new 0 0 79.1 54.4;"
	 xml:space="preserve">
<style type="text/css">
	.st0{fill:#0000DC;}
</style>
<defs>
</defs>
<path class="st0" d="M0,0h3.5v22.4H0V0z M3.7,0h1.1L7,22.4H5.8L3.7,0z M9.3,0h1.2L8.3,22.4H7.1L9.3,0z M10.6,0h3.5v22.4h-3.5V0z
	 M27.4,0v17.1c0,1.2,1.1,2.1,2.1,2.1s2.1-0.9,2.1-2.1V0h3.5v17.2c0,3-2.7,5.3-5.6,5.3s-5.7-2.3-5.7-5.3V0H27.4z M49.5,0v22.4H46V0
	H49.5z M50.8,0l3.3,22.4h-1.2L49.6,0H50.8z M57.8,0v22.4h-3.5V0H57.8z M72.5,21.1V1.2h-3V0h9.6v1.2h-3v19.9h3v1.2h-9.6v-1.2
	C69.5,21.1,72.5,21.1,72.5,21.1z"/>
<g>
	<path class="st0" d="M0.3,32H2v22.4H0.3V32z M2.1,32h1.2l3.8,22.4H5.9L2.1,32z M10.9,32H12L8.2,54.4H7.1L10.9,32z M12.2,32h1.7
		v22.4h-1.7V32z M24.6,32h10.7v1.6h-9v8.2h8.6v1.6h-8.6v9.4h9v1.6H24.6V32z M46.5,32h5.7c2.9,0,5.4,2.4,5.4,5.3V49
		c0,3-2.5,5.3-5.4,5.3h-5.7V32z M52.2,52.7c2,0,3.7-1.6,3.7-3.7V37.3c0-2.1-1.7-3.7-3.7-3.7h-4v19.1C48.2,52.7,52.2,52.7,52.2,52.7z
		"/>
</g>
</svg>
